<svg width="24" height="24" viewBox="0 0 24 24" fill="none" xmlns="http://www.w3.org/2000/svg">
<path d="M15.5816 7.06046H18.7193C18.9962 7.06046 19.1807 6.87369 19.273 6.68473C19.3653 6.49796 19.273 6.21671 19.1807 6.02994L16.043 3.12736C15.8585 2.94059 15.5816 2.94059 15.397 3.03287C15.1202 3.12736 15.0279 3.31412 15.0279 3.59537V6.50016C14.9356 6.87369 15.2125 7.06046 15.5816 7.06046Z" fill="#779EEA"/>
<path d="M19.552 8.37451H14.8411C14.0984 8.37451 13.5557 7.80542 13.5557 7.15063V2.74512C13.5557 2.47266 13.2722 2.18921 12.9119 2.18921H5.79932C4.6853 2.18921 3.85693 3.03076 3.85693 3.97119V19.9893C3.85693 21.0154 4.78418 21.8569 5.79932 21.8569H18.2556C19.3696 21.8569 20.198 21.0154 20.198 19.9893V8.93042C20.1958 8.55908 19.9233 8.37451 19.552 8.37451ZM16.4978 15.6848C16.3242 15.8694 16.1396 15.9573 15.854 15.9573H13.1821V18.4929C13.1821 18.6775 13.0833 18.9631 12.9097 19.0488C12.7251 19.2334 12.5383 19.3323 12.2549 19.3323C11.9824 19.3323 11.7979 19.2334 11.6111 19.0488C11.4265 18.8643 11.3386 18.6775 11.3386 18.4929V15.9551H8.84033C8.56787 15.9551 8.3833 15.8694 8.19653 15.6826C8.01196 15.4849 7.92407 15.2981 7.92407 15.1135C7.92407 14.6433 8.28223 14.272 8.84033 14.272H11.5254V11.7495C11.5254 11.2793 11.8835 10.897 12.4417 10.897C12.9119 10.897 13.3689 11.2815 13.3689 11.7495V14.272H16.0408C16.4978 14.272 16.968 14.6433 16.968 15.1135C16.7812 15.3003 16.6824 15.4849 16.4978 15.6848Z" fill="#779EEA"/>
</svg>
